# xmcd CD database file
#
# Track frame offsets:
#	150
#	18015
#	25695
#	39699
#	54073
#	64656
#	79312
#	94734
#	108820
#	118764
#	138361
#	146701
#	157954
#	170978
#	180833
#	192416
#	204648
#	217376
#	227341
#	239024
#	253444
#	266536
#	275801
#	284371
#	298553
#	307363
#	319455
#	331115
#	342442
#
# Disc length: 4767 seconds
#
# Revision: 0
# Processed by: cddbd v1.5.1PL0 Copyright (c) Steve Scherf et al.
# Submitted via: CDex 1.51
#
DISCID=c2129d1d
DTITLE=Marty Robbins - Gunfighter Ballads And Trail Songs (1-14)
DYEAR=1900
DGENRE=Country
TTITLE0=01-Big Iron
TTITLE1=02-A Hundred and Sixty Acres
TTITLE2=03-They're Hanging Me Tonight
TTITLE3=04-Cool Water
TTITLE4=05-Billy the Kid
TTITLE5=06-Utah Carrol
TTITLE6=07-The Strawberry Roan
TTITLE7=08-The Master's Call
TTITLE8=09-Running Gun
TTITLE9=10-El Paso
TTITLE10=11-In the Valley
TTITLE11=12-The Little Green Valley
TTITLE12=13-The Hanging Tree (Single A Side, Bonus Track)
TTITLE13=14-Saddle Tramp (B Side of Big Iron Single, Bonus Track)
TTITLE14=Song Of The Bandit
TTITLE15=I'll Go On Alone
TTITLE16=I Couldn't Keep From Crying
TTITLE17=Knee Deep In The Blues
TTITLE18=The Story Of My Life
TTITLE19=Don't Worry
TTITLE20=Devil Woman
TTITLE21=Ruby Ann
TTITLE22=I'm Gonna Be A Cowboy
TTITLE23=Man Walks Among Us
TTITLE24=Beautiful Dreamer
TTITLE25=Yours (Quiereme Mucho)
TTITLE26=Ribbon Of Darkness
TTITLE27=Begging To You
TTITLE28=I Walk Alone
EXTD=
EXTT0=
EXTT1=
EXTT2=
EXTT3=
EXTT4=
EXTT5=
EXTT6=
EXTT7=
EXTT8=
EXTT9=
EXTT10=
EXTT11=
EXTT12=
EXTT13=
EXTT14=
EXTT15=
EXTT16=
EXTT17=
EXTT18=
EXTT19=
EXTT20=
EXTT21=
EXTT22=
EXTT23=
EXTT24=
EXTT25=
EXTT26=
EXTT27=
EXTT28=
PLAYORDER=
